<?xml version="1.0" encoding="iso-8859-1"?>
<!-- Generator: Adobe Illustrator 19.0.0, SVG Export Plug-In . SVG Version: 6.00 Build 0)  -->
<svg version="1.1" id="Layer_1" xmlns="http://www.w3.org/2000/svg" xmlns:xlink="http://www.w3.org/1999/xlink" x="0px" y="0px"
	 viewBox="0 0 358.293 358.293" style="enable-background:new 0 0 358.293 358.293;" xml:space="preserve">
<g id="XMLID_1023_">
	<g id="XMLID_1025_">
		<path id="XMLID_35_" style="fill:#2B7B57;" d="M308.824,258.841c-29.01,0-52.527-33.94-52.527-33.94s23.517-33.94,52.527-33.94
			c20.375,0,38.04,16.742,46.751,26.709c3.624,4.147,3.624,10.315,0,14.462C346.864,242.098,329.198,258.841,308.824,258.841z"/>
		<path id="XMLID_32_" style="fill:#2B7B57;" d="M295.596,177.733c0,29.01-33.94,52.527-33.94,52.527s-33.94-23.517-33.94-52.527
			c0-20.375,16.742-38.04,26.709-46.751c4.147-3.624,10.315-3.624,14.462,0C278.854,139.692,295.596,157.358,295.596,177.733z"/>
	</g>
	<path id="XMLID_1026_" style="fill:#49B86E;" d="M206.078,212.951c-8.578-2.491-14.738-9.575-18.886-17.458
		c-0.52-1.012-2.45-6.055-2.965-7.566c-8.594-25.147-27.512-45.604-51.906-56.129C84.563,111.201,29.277,133.44,8.348,181.059
		c-16.594,37.756-8.12,78.657,22.478,106.456c25.964,23.589,66.09,33.064,100.323,33.064c51.937,0,75.412-11.304,91.629-24.699
		c32.218-26.611,54.445-72.074,60.157-84.566c1.413-3.091,0.324-6.859-2.672-8.463c-0.036-0.019-0.072-0.038-0.108-0.057
		c-1.795-0.928-3.938-0.872-5.753,0.018C266.41,206.728,234.145,221.1,206.078,212.951z"/>
	<g id="XMLID_1029_">
		<path id="XMLID_16_" style="fill:#9FCBA5;" d="M115.696,79.804c7.269-7.269,18.399-7.923,24.859-1.462
			c6.461,6.461,5.806,17.591-1.462,24.859c-5.277,5.277-20.022,7.692-27.708,8.619c-2.492,0.301-4.609-1.816-4.308-4.308
			C108.005,99.826,110.42,85.08,115.696,79.804z"/>
		<path id="XMLID_15_" style="fill:#9FCBA5;" d="M66.165,79.804c-7.269-7.269-18.399-7.923-24.859-1.462
			c-6.461,6.461-5.806,17.591,1.462,24.859c5.277,5.277,20.022,7.692,27.708,8.619c2.492,0.301,4.609-1.816,4.308-4.308
			C73.857,99.826,71.442,85.08,66.165,79.804z"/>
		<path id="XMLID_9_" style="fill:#9FCBA5;" d="M69.62,61.689c0-13.241,9.541-23.975,21.311-23.975s21.311,10.734,21.311,23.975
			c0,10.098-12.394,26.837-18.279,34.215c-1.555,1.95-4.51,1.95-6.065,0C82.014,88.525,69.62,71.786,69.62,61.689z"/>
	</g>
	<circle id="XMLID_1030_" style="fill:#9FCBA5;" cx="77.086" cy="198.636" r="16"/>
</g>
<g>
</g>
<g>
</g>
<g>
</g>
<g>
</g>
<g>
</g>
<g>
</g>
<g>
</g>
<g>
</g>
<g>
</g>
<g>
</g>
<g>
</g>
<g>
</g>
<g>
</g>
<g>
</g>
<g>
</g>
</svg>
